<svg width="270" height="56" viewBox="0 0 270 56" fill="none" xmlns="http://www.w3.org/2000/svg">
<path d="M73.4167 37.361C71.752 37.361 70.1374 37.1404 68.573 36.6991C67.0286 36.2378 65.7851 35.6462 64.8424 34.9241L66.4971 31.2537C67.3996 31.9156 68.4727 32.4471 69.7162 32.8482C70.9597 33.2494 72.2033 33.4499 73.4468 33.4499C74.8307 33.4499 75.8536 33.2494 76.5155 32.8482C77.1774 32.427 77.5083 31.8755 77.5083 31.1935C77.5083 30.6921 77.3077 30.2809 76.9066 29.96C76.5255 29.6191 76.0241 29.3483 75.4023 29.1477C74.8006 28.9472 73.9783 28.7265 72.9353 28.4859C71.3308 28.1048 70.0171 27.7237 68.9942 27.3426C67.9713 26.9615 67.0888 26.3498 66.3467 25.5074C65.6246 24.665 65.2636 23.5418 65.2636 22.1378C65.2636 20.9144 65.5945 19.8112 66.2564 18.8285C66.9183 17.8256 67.9111 17.0334 69.2348 16.4517C70.5787 15.8701 72.2133 15.5792 74.1388 15.5792C75.4826 15.5792 76.7963 15.7397 78.0799 16.0606C79.3636 16.3815 80.4868 16.8428 81.4495 17.4445L79.9452 21.145C77.9997 20.0419 76.0542 19.4903 74.1087 19.4903C72.7448 19.4903 71.7319 19.711 71.0701 20.1522C70.4282 20.5935 70.1073 21.1751 70.1073 21.8972C70.1073 22.6192 70.4784 23.1607 71.2205 23.5218C71.9826 23.8627 73.1359 24.2037 74.6803 24.5447C76.2848 24.9258 77.5986 25.3068 78.6215 25.6879C79.6444 26.069 80.5168 26.6707 81.2389 27.493C81.981 28.3154 82.3521 29.4285 82.3521 30.8325C82.3521 32.0359 82.0111 33.139 81.3292 34.1419C80.6673 35.1247 79.6644 35.9069 78.3206 36.4885C76.9768 37.0702 75.3422 37.361 73.4167 37.361ZM94.9186 20.5734C96.4228 20.5734 97.7867 20.9244 99.0102 21.6264C100.254 22.3083 101.226 23.2811 101.928 24.5447C102.63 25.7882 102.981 27.2423 102.981 28.907C102.981 30.5718 102.63 32.0359 101.928 33.2995C101.226 34.543 100.254 35.5158 99.0102 36.2178C97.7867 36.8997 96.4228 37.2407 94.9186 37.2407C92.8527 37.2407 91.2281 36.5888 90.0447 35.2851V42.8366H85.3514V20.8141H89.8341V22.6794C90.9974 21.2754 92.6922 20.5734 94.9186 20.5734ZM94.1062 33.3898C95.3097 33.3898 96.2925 32.9886 97.0546 32.1863C97.8368 31.364 98.2279 30.2709 98.2279 28.907C98.2279 27.5432 97.8368 26.4601 97.0546 25.6578C96.2925 24.8355 95.3097 24.4243 94.1062 24.4243C92.9028 24.4243 91.91 24.8355 91.1278 25.6578C90.3656 26.4601 89.9846 27.5432 89.9846 28.907C89.9846 30.2709 90.3656 31.364 91.1278 32.1863C91.91 32.9886 92.9028 33.3898 94.1062 33.3898ZM106.123 14.6767H110.817V37H106.123V14.6767ZM115.172 20.8141H119.866V37H115.172V20.8141ZM117.519 18.5577C116.657 18.5577 115.955 18.307 115.413 17.8056C114.871 17.3041 114.601 16.6824 114.601 15.9403C114.601 15.1982 114.871 14.5764 115.413 14.075C115.955 13.5736 116.657 13.3228 117.519 13.3228C118.381 13.3228 119.083 13.5635 119.625 14.0449C120.166 14.5263 120.437 15.128 120.437 15.85C120.437 16.6322 120.166 17.2841 119.625 17.8056C119.083 18.307 118.381 18.5577 117.519 18.5577ZM134.661 36.2178C134.2 36.5587 133.628 36.8195 132.946 37C132.284 37.1605 131.582 37.2407 130.84 37.2407C128.915 37.2407 127.421 36.7493 126.357 35.7665C125.315 34.7837 124.793 33.3396 124.793 31.4342V24.7854H122.296V21.1751H124.793V17.2339H129.486V21.1751H133.518V24.7854H129.486V31.374C129.486 32.056 129.657 32.5875 129.998 32.9686C130.359 33.3296 130.86 33.5101 131.502 33.5101C132.244 33.5101 132.876 33.3095 133.397 32.9084L134.661 36.2178ZM162.996 20.8141L157.129 37H152.616L148.976 26.9515L145.215 37H140.702L134.866 20.8141H139.288L143.109 31.7652L147.08 20.8141H151.052L154.903 31.7652L158.844 20.8141H162.996ZM165.177 20.8141H169.871V37H165.177V20.8141ZM167.524 18.5577C166.662 18.5577 165.96 18.307 165.418 17.8056C164.877 17.3041 164.606 16.6824 164.606 15.9403C164.606 15.1982 164.877 14.5764 165.418 14.075C165.96 13.5736 166.662 13.3228 167.524 13.3228C168.387 13.3228 169.089 13.5635 169.63 14.0449C170.172 14.5263 170.442 15.128 170.442 15.85C170.442 16.6322 170.172 17.2841 169.63 17.8056C169.089 18.307 168.387 18.5577 167.524 18.5577ZM179.672 37.2407C178.328 37.2407 177.014 37.0802 175.731 36.7593C174.447 36.4184 173.424 35.9972 172.662 35.4957L174.227 32.1262C174.949 32.5875 175.821 32.9686 176.844 33.2694C177.867 33.5502 178.87 33.6906 179.852 33.6906C181.838 33.6906 182.831 33.1992 182.831 32.2164C182.831 31.7551 182.56 31.4242 182.019 31.2236C181.477 31.023 180.645 30.8526 179.522 30.7122C178.198 30.5116 177.105 30.2809 176.242 30.0202C175.38 29.7595 174.628 29.2982 173.986 28.6363C173.364 27.9744 173.053 27.0317 173.053 25.8083C173.053 24.7854 173.344 23.8828 173.926 23.1006C174.527 22.2983 175.39 21.6765 176.513 21.2353C177.656 20.794 179 20.5734 180.544 20.5734C181.688 20.5734 182.821 20.7038 183.944 20.9645C185.087 21.2052 186.03 21.5462 186.772 21.9874L185.208 25.3269C183.784 24.5246 182.229 24.1235 180.544 24.1235C179.542 24.1235 178.789 24.2639 178.288 24.5447C177.787 24.8255 177.536 25.1865 177.536 25.6277C177.536 26.1292 177.807 26.4802 178.348 26.6807C178.89 26.8813 179.752 27.0718 180.936 27.2524C182.259 27.473 183.342 27.7137 184.185 27.9744C185.027 28.2151 185.759 28.6664 186.381 29.3282C187.003 29.9901 187.314 30.9127 187.314 32.0961C187.314 33.0989 187.013 33.9915 186.411 34.7737C185.809 35.5559 184.927 36.1676 183.764 36.6089C182.62 37.0301 181.256 37.2407 179.672 37.2407ZM206.064 28.9672C206.064 29.0274 206.034 29.4486 205.974 30.2308H193.729C193.95 31.2336 194.471 32.0259 195.294 32.6075C196.116 33.1892 197.139 33.48 198.362 33.48C199.205 33.48 199.947 33.3597 200.589 33.119C201.251 32.8583 201.862 32.4571 202.424 31.9156L204.921 34.6233C203.397 36.3682 201.17 37.2407 198.242 37.2407C196.417 37.2407 194.802 36.8897 193.398 36.1877C191.994 35.4656 190.911 34.4728 190.149 33.2092C189.387 31.9457 189.006 30.5116 189.006 28.907C189.006 27.3226 189.377 25.8985 190.119 24.6349C190.881 23.3513 191.914 22.3585 193.218 21.6565C194.542 20.9344 196.016 20.5734 197.64 20.5734C199.225 20.5734 200.659 20.9144 201.943 21.5963C203.226 22.2782 204.229 23.261 204.951 24.5447C205.693 25.8083 206.064 27.2824 206.064 28.9672ZM197.671 24.1235C196.608 24.1235 195.715 24.4243 194.993 25.026C194.271 25.6277 193.83 26.4501 193.669 27.493H201.642C201.481 26.4701 201.04 25.6578 200.318 25.0561C199.596 24.4344 198.713 24.1235 197.671 24.1235ZM226.209 15.9403C228.896 15.9403 231.002 16.5821 232.527 17.8657C234.051 19.1494 234.813 20.9144 234.813 23.1607C234.813 25.4071 234.051 27.1721 232.527 28.4558C231.002 29.7193 228.896 30.3511 226.209 30.3511H220.553V37H218.326V15.9403H226.209ZM226.149 28.3956C228.235 28.3956 229.829 27.9443 230.932 27.0418C232.035 26.1191 232.587 24.8255 232.587 23.1607C232.587 21.4559 232.035 20.1522 230.932 19.2497C229.829 18.327 228.235 17.8657 226.149 17.8657H220.553V28.3956H226.149ZM244.565 21.0548C246.63 21.0548 248.215 21.5763 249.318 22.6192C250.421 23.6421 250.973 25.1664 250.973 27.1922V37H248.927V34.533C248.446 35.3553 247.734 35.9972 246.791 36.4585C245.868 36.9198 244.765 37.1504 243.482 37.1504C241.717 37.1504 240.313 36.7292 239.27 35.8868C238.227 35.0445 237.705 33.9313 237.705 32.5474C237.705 31.2036 238.187 30.1205 239.149 29.2982C240.132 28.4758 241.686 28.0647 243.813 28.0647H248.837V27.1019C248.837 25.7381 248.456 24.7051 247.694 24.0031C246.931 23.2811 245.818 22.9201 244.354 22.9201C243.351 22.9201 242.388 23.0905 241.466 23.4315C240.543 23.7524 239.751 24.2037 239.089 24.7854L238.126 23.1908C238.929 22.5089 239.891 21.9874 241.015 21.6264C242.138 21.2453 243.321 21.0548 244.565 21.0548ZM243.813 35.4656C245.016 35.4656 246.049 35.1949 246.911 34.6533C247.774 34.0918 248.416 33.2895 248.837 32.2465V29.6592H243.873C241.165 29.6592 239.811 30.6019 239.811 32.4872C239.811 33.4098 240.162 34.1419 240.864 34.6834C241.566 35.2049 242.549 35.4656 243.813 35.4656ZM269.778 21.1751L261.866 38.8954C261.224 40.3796 260.482 41.4326 259.64 42.0543C258.797 42.6761 257.784 42.987 256.601 42.987C255.839 42.987 255.127 42.8666 254.465 42.626C253.803 42.3853 253.232 42.0243 252.75 41.5429L253.743 39.9484C254.545 40.7506 255.508 41.1518 256.631 41.1518C257.353 41.1518 257.965 40.9512 258.466 40.5501C258.988 40.1489 259.469 39.467 259.911 38.5043L260.602 36.9699L253.532 21.1751H255.759L261.716 34.6233L267.673 21.1751H269.778Z" fill="#373B3F"/>
<g clip-path="url(#clip0_2_608)">
<path d="M12.3643 22.1999L20.419 36.3492L4.375 36.2894L12.3643 22.1999Z" fill="#137863"/>
<path d="M51.6247 8.74988L16.3961 29.2828L28.1184 49.8749L51.6247 8.74988Z" fill="#ACE4D6"/>
<path d="M4.70782 8.74995L16.3966 29.2829L51.6252 8.74995H4.70782Z" fill="#1CC29F"/>
</g>
<defs>
<clipPath id="clip0_2_608">
<rect width="47.25" height="41.125" fill="white" transform="translate(4.375 8.75)"/>
</clipPath>
</defs>
</svg>
